<svg width="88" height="88" viewBox="0 0 88 88" fill="none" xmlns="http://www.w3.org/2000/svg">
<g filter="url(#filter0_d_275_823)">
<rect x="3" y="1" width="80" height="80" rx="40" fill="#33693E" shape-rendering="crispEdges"/>
<path d="M51.8191 45.1483C51.3617 44.9189 49.1118 43.8132 48.6929 43.6592C48.2725 43.5067 47.9676 43.4312 47.6611 43.8902C47.3577 44.3475 46.4799 45.3778 46.2135 45.6827C45.9471 45.9892 45.6791 46.0261 45.2217 45.7982C44.7644 45.5672 43.289 45.0852 41.5411 43.5267C40.1813 42.3132 39.2619 40.8148 38.9955 40.3559C38.7291 39.8985 38.9678 39.6505 39.1957 39.4226C39.4021 39.2178 39.6546 38.8882 39.8826 38.6218C40.112 38.3539 40.1875 38.1629 40.3415 37.8564C40.4939 37.5515 40.4185 37.2851 40.303 37.0556C40.1875 36.8262 39.2727 34.5732 38.8923 33.6569C38.5197 32.7652 38.1424 32.8869 37.8621 32.8715C37.5957 32.8591 37.2907 32.8561 36.9843 32.8561C36.6794 32.8561 36.1835 32.97 35.7646 33.4289C35.3457 33.8863 34.163 34.9936 34.163 37.2466C34.163 39.4981 35.8031 41.6741 36.031 41.9806C36.2605 42.2855 39.2589 46.9086 43.8496 48.8905C44.9415 49.3618 45.7931 49.6436 46.4584 49.853C47.5548 50.2026 48.5528 50.1533 49.3397 50.0348C50.219 49.9039 52.047 48.9275 52.4289 47.8587C52.8109 46.79 52.8109 45.8737 52.6954 45.6827C52.5814 45.4918 52.278 45.3778 51.8191 45.1483ZM43.4692 56.549H43.4631C40.7369 56.5492 38.0609 55.8162 35.7153 54.4268L35.1594 54.0973L29.3982 55.6096L30.9352 49.9916L30.5733 49.4157C29.0493 46.989 28.2431 44.1807 28.2479 41.3153C28.2494 32.9223 35.0793 26.0939 43.4754 26.0939C47.541 26.0939 51.3633 27.6801 54.2369 30.5568C55.6547 31.9684 56.7786 33.6472 57.5433 35.496C58.308 37.3448 58.6985 39.3269 58.6921 41.3276C58.6875 49.7206 51.8591 56.549 43.4692 56.549ZM56.4252 28.3716C54.7285 26.6636 52.7096 25.3093 50.4856 24.3873C48.2616 23.4652 45.8768 22.9937 43.4692 23.0001C33.3745 23.0001 25.1586 31.216 25.154 41.3137C25.154 44.5416 25.9964 47.6924 27.5995 50.469L25 59.9601L34.7097 57.4129C37.3948 58.8758 40.4038 59.6424 43.4615 59.6428H43.4692C53.5624 59.6428 61.7798 51.4269 61.7844 41.3276C61.7919 38.921 61.3221 36.5368 60.4022 34.313C59.4823 32.0891 58.1306 30.0697 56.4252 28.3716Z" fill="#FFFBF7"/>
</g>
<defs>
<filter id="filter0_d_275_823" x="0" y="0" width="88" height="88" filterUnits="userSpaceOnUse" color-interpolation-filters="sRGB">
<feFlood flood-opacity="0" result="BackgroundImageFix"/>
<feColorMatrix in="SourceAlpha" type="matrix" values="0 0 0 0 0 0 0 0 0 0 0 0 0 0 0 0 0 0 127 0" result="hardAlpha"/>
<feOffset dx="1" dy="3"/>
<feGaussianBlur stdDeviation="2"/>
<feComposite in2="hardAlpha" operator="out"/>
<feColorMatrix type="matrix" values="0 0 0 0 0 0 0 0 0 0 0 0 0 0 0 0 0 0 0.1 0"/>
<feBlend mode="normal" in2="BackgroundImageFix" result="effect1_dropShadow_275_823"/>
<feBlend mode="normal" in="SourceGraphic" in2="effect1_dropShadow_275_823" result="shape"/>
</filter>
</defs>
</svg>
